<?xml version="1.0" encoding="UTF-8"?>
<!DOCTYPE svg PUBLIC "-//W3C//DTD SVG 1.1//EN" "http://www.w3.org/Graphics/SVG/1.1/DTD/svg11.dtd">
<!-- Creator: CorelDRAW X8 -->
<svg xmlns="http://www.w3.org/2000/svg" xml:space="preserve" width="159.718mm" height="98.439mm" version="1.1" style="shape-rendering:geometricPrecision; text-rendering:geometricPrecision; image-rendering:optimizeQuality; fill-rule:evenodd; clip-rule:evenodd"
viewBox="0 0 15972 9844"
 xmlns:xlink="http://www.w3.org/1999/xlink">
 <defs>
  <style type="text/css">
   <![CDATA[
    .fil1 {fill:#3B438C}
    .fil2 {fill:#637EB5}
    .fil3 {fill:#8A99C2}
    .fil4 {fill:#A5B3D8}
    .fil0 {fill:red}
    .fil5 {fill:#3B438C;fill-rule:nonzero}
   ]]>
  </style>
 </defs>
 <g id="Camada_x0020_1">
  <metadata id="CorelCorpID_0Corel-Layer"/>
  <g id="_1722345881008">
   <polygon class="fil0" points="5017,1412 3829,1412 3831,1405 3758,1405 4173,0 2301,0 1884,1412 656,1412 0,3138 1374,3138 604,5742 2549,5742 2551,5735 2478,5735 3248,3130 4430,3130 "/>
   <polygon class="fil1" points="6136,7 4265,7 3876,1325 5138,1325 4498,3238 3316,3238 2568,5742 6136,5742 "/>
   <polygon class="fil2" points="6228,6 9362,6 9362,5742 6228,5742 "/>
   <polygon class="fil3" points="9452,6 12613,6 12613,5742 9452,5742 "/>
   <polygon class="fil4" points="12703,6 15945,6 15945,5742 12703,5742 "/>
   <polygon class="fil0" points="18,8205 15943,8205 15943,8615 18,8615 "/>
   <path class="fil5" d="M1450 6982c0,78 -10,151 -30,221 -20,70 -48,136 -85,196 -36,61 -80,116 -131,165 -51,49 -107,91 -169,125 -62,35 -129,61 -201,80 -72,19 -146,28 -223,28l-542 0c-14,0 -25,-3 -36,-9 -10,-5 -15,-18 -15,-37l0 -1537c0,-16 4,-28 13,-38 8,-9 21,-14 38,-14l542 0c77,0 151,10 223,29 71,19 138,46 200,81 62,35 118,78 169,127 52,49 96,104 132,165 36,61 64,126 85,197 20,70 30,144 30,221zm-1005 -424l0 845 92 0c16,0 33,0 49,-2 16,-1 32,-2 48,-3 55,-5 106,-18 153,-40 48,-23 89,-52 125,-88 35,-36 63,-79 83,-128 20,-49 30,-103 30,-161 0,-61 -11,-118 -34,-169 -23,-52 -55,-97 -94,-135 -39,-37 -85,-67 -139,-88 -52,-20 -109,-31 -169,-31l-144 0zm1698 422c0,61 10,117 31,170 20,53 49,99 86,138 37,39 80,70 131,93 51,22 106,33 167,33 61,0 117,-11 167,-33 51,-23 95,-54 132,-93 37,-39 66,-85 86,-138 21,-53 31,-109 31,-170 0,-60 -10,-117 -31,-170 -20,-54 -49,-100 -86,-139 -37,-40 -81,-71 -132,-94 -50,-23 -106,-34 -167,-34 -61,0 -116,11 -167,34 -51,23 -94,54 -131,94 -37,39 -66,85 -86,139 -21,53 -31,110 -31,170zm-427 1c0,-78 10,-152 30,-224 20,-71 48,-139 85,-201 37,-63 81,-120 132,-172 51,-51 107,-95 170,-131 62,-36 129,-64 201,-85 71,-20 146,-30 224,-30 77,0 152,10 224,30 72,21 139,49 201,85 63,36 119,80 171,131 51,52 95,109 132,172 36,62 64,130 84,201 21,72 31,146 31,224 0,78 -10,153 -31,224 -20,72 -48,139 -84,201 -37,62 -81,118 -132,169 -52,51 -108,95 -171,132 -62,37 -129,65 -201,85 -72,20 -147,29 -224,29 -78,0 -153,-9 -224,-29 -72,-20 -139,-48 -201,-85 -63,-37 -119,-81 -170,-132 -51,-51 -95,-107 -132,-169 -37,-62 -65,-129 -85,-201 -20,-71 -30,-146 -30,-224zm2099 -770c1,-14 7,-25 15,-35 9,-9 22,-14 38,-14l380 0c27,0 45,14 53,42l299 1000 301 -1000c10,-28 29,-42 56,-42l376 0c13,0 26,5 36,14 11,9 17,21 18,35 26,258 52,515 79,769 27,254 53,510 78,769l0 5c0,29 -16,43 -48,43l-311 0c-34,0 -51,-16 -53,-48l-96 -851 -247 855c-1,8 -7,16 -16,27 -9,10 -18,15 -27,15l-289 0c-9,0 -18,-5 -28,-15 -10,-10 -15,-19 -16,-27l-247 -853 -96 849c-1,32 -19,48 -54,48l-311 0c-32,0 -47,-16 -47,-48l157 -1538zm3118 769c0,61 10,117 30,170 21,53 50,99 87,138 37,39 80,70 131,93 50,22 106,33 167,33 60,0 116,-11 167,-33 51,-23 95,-54 132,-93 37,-39 66,-85 86,-138 21,-53 31,-109 31,-170 0,-60 -10,-117 -31,-170 -20,-54 -49,-100 -86,-139 -37,-40 -81,-71 -132,-94 -51,-23 -107,-34 -167,-34 -61,0 -117,11 -167,34 -51,23 -94,54 -131,94 -37,39 -66,85 -87,139 -20,53 -30,110 -30,170zm-427 1c0,-78 10,-152 30,-224 20,-71 48,-139 85,-201 36,-63 80,-120 131,-172 51,-51 108,-95 170,-131 63,-36 130,-64 202,-85 71,-20 146,-30 224,-30 77,0 151,10 223,30 72,21 139,49 202,85 62,36 119,80 171,131 51,52 95,109 131,172 37,62 65,130 85,201 20,72 30,146 30,224 0,78 -10,153 -30,224 -20,72 -48,139 -85,201 -36,62 -80,118 -131,169 -52,51 -109,95 -171,132 -63,37 -130,65 -202,85 -72,20 -146,29 -223,29 -78,0 -153,-9 -224,-29 -72,-20 -139,-48 -202,-85 -62,-37 -119,-81 -170,-132 -51,-51 -95,-107 -131,-169 -37,-62 -65,-129 -85,-201 -20,-71 -30,-146 -30,-224zm2011 -768c0,-16 4,-28 12,-37 8,-9 20,-14 36,-14l710 0c76,0 146,14 212,43 66,28 124,66 173,115 49,48 88,105 116,170 28,65 42,134 42,207 0,50 -6,98 -20,143 -13,45 -32,87 -57,127 -24,39 -52,74 -86,106 -33,32 -70,60 -109,82l283 533c6,11 12,23 20,37 8,14 12,26 12,36 0,12 -3,20 -11,27 -8,6 -18,9 -32,9l-378 0c-12,0 -23,-3 -33,-11 -10,-7 -17,-17 -20,-29l-266 -503 -178 0 0 496c0,31 -17,47 -50,47l-328 0c-15,0 -26,-4 -35,-12 -9,-7 -13,-19 -13,-35l0 -1537zm859 489c0,-22 -4,-44 -12,-66 -8,-22 -19,-42 -33,-60 -15,-18 -33,-34 -53,-46 -20,-13 -43,-21 -68,-25 -20,-1 -40,-2 -57,-4 -18,-1 -38,-1 -59,-1l-151 0 0 404 201 0c14,0 25,-1 36,-1 10,-1 21,-2 33,-4 26,-3 49,-10 69,-22 21,-12 38,-27 52,-45 13,-18 24,-39 31,-61 8,-22 11,-45 11,-69zm744 -491c0,-14 4,-25 12,-35 9,-9 21,-14 37,-14l324 0c11,0 23,5 35,13 13,9 19,21 19,36l0 1538c0,32 -18,48 -54,48l-324 0c-32,0 -49,-16 -49,-48l0 -1538zm1189 769c0,61 10,117 30,170 21,53 49,99 86,138 37,39 81,70 132,93 50,22 106,33 167,33 60,0 116,-11 167,-33 51,-23 95,-54 132,-93 37,-39 65,-85 86,-138 21,-53 31,-109 31,-170 0,-60 -10,-117 -31,-170 -21,-54 -49,-100 -86,-139 -37,-40 -81,-71 -132,-94 -51,-23 -107,-34 -167,-34 -61,0 -117,11 -167,34 -51,23 -95,54 -132,94 -37,39 -65,85 -86,139 -20,53 -30,110 -30,170zm-427 1c0,-78 10,-152 30,-224 19,-71 48,-139 85,-201 36,-63 80,-120 131,-172 51,-51 108,-95 170,-131 63,-36 130,-64 202,-85 71,-20 146,-30 224,-30 77,0 151,10 223,30 72,21 139,49 202,85 62,36 119,80 171,131 51,52 95,109 131,172 37,62 65,130 85,201 20,72 30,146 30,224 0,78 -10,153 -30,224 -20,72 -48,139 -85,201 -36,62 -80,118 -131,169 -52,51 -109,95 -171,132 -63,37 -130,65 -202,85 -72,20 -146,29 -223,29 -78,0 -153,-9 -224,-29 -72,-20 -139,-48 -202,-85 -62,-37 -119,-81 -170,-132 -51,-51 -95,-107 -131,-169 -37,-62 -66,-129 -85,-201 -20,-71 -30,-146 -30,-224zm2013 -770c0,-14 4,-25 12,-35 8,-9 20,-14 36,-14l361 0c10,0 21,3 32,8 11,5 20,14 28,26 93,151 185,299 276,445 91,146 184,294 277,445l0 -882c3,-13 9,-23 18,-31 9,-7 19,-11 31,-11l313 0c15,0 28,5 38,13 11,8 16,20 16,36l0 1543c0,15 -5,26 -13,33 -9,7 -21,10 -37,10l-350 0c-10,0 -18,-3 -26,-10 -7,-6 -15,-15 -23,-26 -97,-161 -193,-321 -288,-479 -95,-158 -192,-317 -290,-479l0 946c0,16 -4,28 -11,36 -7,8 -21,12 -40,12l-312 0c-17,0 -29,-5 -37,-14 -7,-9 -11,-20 -11,-33l0 -1539zm1854 2c0,-16 5,-28 13,-37 8,-9 20,-14 36,-14l1091 0c16,0 29,5 38,14 9,10 13,23 13,39l0 273c0,12 -4,24 -13,35 -9,12 -22,18 -39,18l-712 0 0 273 549 0c14,0 26,3 35,9 10,7 14,18 14,33l0 239c0,11 -4,20 -12,30 -8,9 -20,14 -35,14l-551 0 0 280 739 0c33,0 49,17 49,50l0 278c0,7 -3,14 -9,19 -3,21 -18,31 -45,31l-1112 0c-15,0 -27,-4 -36,-12 -8,-7 -13,-19 -13,-35l0 -1537z"/>
   <path class="fil5" d="M11455 9835l-150 0 0 -350 -376 0 0 350 -150 0 0 -801 150 0 0 345 376 0 0 -345 150 0 0 801zm930 -401c0,59 -10,114 -29,164 -20,50 -47,93 -83,130 -35,36 -78,65 -128,85 -50,21 -105,31 -165,31 -61,0 -116,-10 -166,-31 -50,-20 -93,-49 -129,-85 -36,-37 -63,-80 -83,-130 -19,-50 -29,-105 -29,-164 0,-58 10,-113 29,-163 20,-50 47,-93 83,-130 36,-36 79,-65 129,-85 50,-21 105,-31 166,-31 60,0 115,10 165,31 50,21 93,49 128,86 36,36 63,79 83,129 19,50 29,105 29,163zm-153 0c0,-43 -6,-83 -17,-118 -12,-35 -29,-64 -50,-89 -22,-24 -49,-43 -80,-56 -31,-13 -66,-19 -105,-19 -40,0 -75,6 -106,19 -32,13 -58,32 -80,56 -22,25 -39,54 -51,89 -12,35 -18,75 -18,118 0,44 6,84 18,119 12,35 29,64 51,88 22,25 48,43 80,56 31,13 66,19 106,19 39,0 74,-6 105,-19 31,-13 58,-31 80,-56 21,-24 38,-53 50,-88 11,-35 17,-75 17,-119zm700 -254c-4,8 -9,13 -14,17 -6,3 -12,5 -19,5 -8,0 -16,-3 -25,-9 -10,-6 -20,-12 -33,-19 -13,-7 -27,-13 -44,-19 -17,-6 -37,-9 -60,-9 -20,0 -38,3 -53,8 -16,5 -29,12 -39,21 -11,9 -19,19 -24,31 -5,13 -8,26 -8,41 0,19 6,35 16,47 11,13 25,24 42,32 17,9 37,17 59,24 22,7 45,15 68,23 23,8 46,17 68,27 22,11 42,24 59,40 18,16 32,36 42,59 11,24 16,52 16,85 0,36 -6,70 -19,102 -12,31 -30,59 -54,82 -24,24 -53,42 -87,56 -35,13 -74,20 -118,20 -26,0 -51,-3 -76,-8 -24,-5 -48,-12 -71,-21 -22,-9 -44,-20 -63,-33 -20,-13 -38,-27 -53,-43l43 -72c4,-5 9,-9 15,-13 5,-3 12,-5 19,-5 9,0 19,4 30,11 10,8 23,16 37,25 15,10 32,18 52,26 20,7 43,11 71,11 43,0 75,-10 99,-30 23,-20 35,-49 35,-87 0,-21 -6,-38 -16,-51 -11,-14 -25,-25 -42,-34 -17,-9 -37,-17 -59,-23 -22,-6 -45,-13 -68,-20 -23,-8 -45,-17 -67,-27 -23,-10 -42,-24 -60,-40 -17,-17 -31,-38 -41,-63 -11,-25 -16,-55 -16,-92 0,-29 6,-58 17,-85 12,-28 29,-53 51,-74 23,-21 50,-39 82,-52 33,-12 70,-19 112,-19 47,0 91,7 130,22 40,15 74,36 102,62l-36 71zm319 373l0 282 -149 0 0 -801 261 0c53,0 100,6 139,19 39,12 71,30 97,52 25,23 44,50 56,81 13,32 19,66 19,103 0,39 -7,75 -20,107 -13,32 -32,60 -58,83 -26,24 -58,42 -97,55 -39,13 -84,19 -136,19l-112 0zm0 -116l112 0c27,0 51,-4 71,-11 21,-6 37,-16 51,-29 13,-13 23,-28 30,-47 6,-18 10,-38 10,-61 0,-21 -4,-40 -10,-58 -7,-17 -17,-32 -30,-44 -14,-12 -30,-22 -51,-28 -20,-7 -44,-10 -71,-10l-112 0 0 288zm706 398l-149 0 0 -801 149 0 0 801zm745 -801l0 122 -241 0 0 679 -149 0 0 -679 -242 0 0 -122 632 0zm717 801l-115 0c-13,0 -23,-3 -32,-10 -8,-6 -14,-14 -18,-24l-59 -163 -332 0 -60 163c-3,9 -9,17 -18,24 -8,7 -19,10 -31,10l-116 0 314 -801 153 0 314 801zm-518 -302l255 0 -97 -267c-5,-12 -9,-26 -15,-42 -5,-16 -11,-33 -16,-52 -5,19 -10,36 -15,53 -5,16 -10,30 -15,42l-97 266zm750 179l321 0 0 123 -470 0 0 -801 149 0 0 678z"/>
  </g>
 </g>
</svg>
